<?xml version="1.0" encoding="UTF-8" standalone="no"?>
<!-- Created with Inkscape (http://www.inkscape.org/) -->

<svg
   xmlns:dc="http://purl.org/dc/elements/1.1/"
   xmlns:cc="http://creativecommons.org/ns#"
   xmlns:rdf="http://www.w3.org/1999/02/22-rdf-syntax-ns#"
   xmlns:svg="http://www.w3.org/2000/svg"
   xmlns="http://www.w3.org/2000/svg"
   xmlns:xlink="http://www.w3.org/1999/xlink"
   xmlns:sodipodi="http://sodipodi.sourceforge.net/DTD/sodipodi-0.dtd"
   xmlns:inkscape="http://www.inkscape.org/namespaces/inkscape"
   width="1280"
   height="720"
   viewBox="0 0 1280 719.99997"
   id="svg2"
   version="1.1"
   inkscape:version="0.91 r13725"
   sodipodi:docname="Unit 5 Semantic Elements.svg">
  <defs
     id="defs4">
    <linearGradient
       inkscape:collect="always"
       id="linearGradient4232">
      <stop
         style="stop-color:#000000;stop-opacity:1;"
         offset="0"
         id="stop4234" />
      <stop
         style="stop-color:#000000;stop-opacity:0;"
         offset="1"
         id="stop4236" />
    </linearGradient>
    <linearGradient
       inkscape:collect="always"
       xlink:href="#linearGradient4232"
       id="linearGradient4238"
       x1="674.06503"
       y1="731.86323"
       x2="1127.7968"
       y2="731.86323"
       gradientUnits="userSpaceOnUse" />
  </defs>
  <sodipodi:namedview
     id="base"
     pagecolor="#ffffff"
     bordercolor="#666666"
     borderopacity="1.0"
     inkscape:pageopacity="0.0"
     inkscape:pageshadow="2"
     inkscape:zoom="0.8"
     inkscape:cx="612.77384"
     inkscape:cy="347.13855"
     inkscape:document-units="px"
     inkscape:current-layer="layer1"
     showgrid="false"
     inkscape:showpageshadow="false"
     units="px"
     showguides="true"
     inkscape:guide-bbox="true"
     inkscape:snap-global="false"
     inkscape:window-width="1440"
     inkscape:window-height="802"
     inkscape:window-x="4"
     inkscape:window-y="0"
     inkscape:window-maximized="0" />
  <metadata
     id="metadata7">
    <rdf:RDF>
      <cc:Work
         rdf:about="">
        <dc:format>image/svg+xml</dc:format>
        <dc:type
           rdf:resource="http://purl.org/dc/dcmitype/StillImage" />
        <dc:title></dc:title>
      </cc:Work>
    </rdf:RDF>
  </metadata>
  <g
     inkscape:label="Layer 1"
     inkscape:groupmode="layer"
     id="layer1"
     transform="translate(0,-332.3623)">
    <rect
       style="fill:#917b12;fill-opacity:0.05732482;fill-rule:evenodd;stroke:none;stroke-width:1.17700005;stroke-linecap:butt;stroke-linejoin:miter;stroke-miterlimit:4;stroke-dasharray:none;stroke-opacity:1"
       id="rect3338"
       width="1280"
       height="720"
       x="1.5882568"
       y="331.22403" />
    <path
       style="fill:#d6b90e;fill-opacity:0.15286626;stroke:#000000;stroke-width:0.80975622;stroke-opacity:1"
       d="m 0.904873,437.51719 c 213.063437,0 426.126827,0 639.190247,0 0,86.39675 0,172.79348 0,259.19023 -213.06342,0 -426.12681,0 -639.190247,0 0,-86.39675 0,-172.79348 0,-259.19023 z"
       id="rect4252"
       inkscape:connector-curvature="0" />
    <rect
       style="fill:none"
       id="rect4135"
       width="1268.1818"
       height="78.311684"
       x="4.6753244"
       y="338.20645" />
    <rect
       style="fill:none"
       id="rect4137"
       width="1270.5195"
       height="102.85714"
       x="3.5064936"
       y="335.8688" />
    <rect
       style="fill:none"
       id="rect4139"
       width="260.64935"
       height="82.987015"
       x="3.5064936"
       y="339.37531" />
    <rect
       style="fill:none"
       id="rect4141"
       width="120.38961"
       height="136.75325"
       x="80.649353"
       y="418.8558" />
    <rect
       style="fill:none"
       id="rect4143"
       width="466.36365"
       height="234.93506"
       x="39.740261"
       y="390.80386" />
    <rect
       style="fill:none"
       id="rect4145"
       width="379.87012"
       height="139.09091"
       x="114.54546"
       y="389.63504" />
    <rect
       style="fill:#ffcc66"
       id="rect4149"
       width="1.1688311"
       height="12.857142"
       x="1097.5325"
       y="347.5571" />
    <rect
       style="fill:none"
       id="rect4148"
       width="1222.9885"
       height="66.666656"
       x="55.172413"
       y="367.30484"
       rx="248.85059"
       ry="0" />
    <rect
       style="fill:none"
       id="rect4152"
       width="1278.1609"
       height="97.701149"
       x="0"
       y="333.9715" />
    <rect
       style="fill:none"
       id="rect4154"
       width="1267.816"
       height="98.850578"
       x="5.7471266"
       y="339.71863" />
    <rect
       style="fill:none"
       id="rect4160"
       width="1280"
       height="100"
       x="4.5977011"
       y="339.71863" />
    <rect
       style="fill:none"
       id="rect4165"
       width="1274.7126"
       height="120.68965"
       x="2.2988505"
       y="337.41977" />
    <rect
       style="fill:none"
       id="rect4167"
       width="1273.5632"
       height="114.94253"
       x="2.2988505"
       y="338.56918" />
    <rect
       style="fill:none"
       id="rect4169"
       width="1275.4025"
       height="100"
       x="2.2988503"
       y="340.86804" />
    <rect
       style="fill:none"
       id="rect4171"
       width="1278.1609"
       height="81.609192"
       x="1.1494253"
       y="350.06345" />
    <rect
       style="fill:#c9a40a;fill-opacity:1;stroke:#000000;stroke-width:0.91580999;stroke-opacity:1"
       id="rect4173"
       width="1279.0842"
       height="107.08419"
       x="0.60733163"
       y="333.19086" />
    <rect
       style="fill:none;stroke:none;stroke-width:1.02775729;stroke-opacity:1"
       id="rect4177"
       width="443.21362"
       height="227.55844"
       x="642.24384"
       y="641.18079" />
    <rect
       style="fill:none;stroke:#0a0000;stroke-width:0.87362194;stroke-opacity:1"
       id="rect4179"
       width="851.1264"
       height="35.126377"
       x="402.18683"
       y="995.55206" />
    <rect
       style="fill:#c9a40a;fill-opacity:1;stroke:#000000;stroke-width:1.18786097;stroke-opacity:1"
       id="rect4189"
       width="1278.8121"
       height="70.812141"
       x="0.39278093"
       y="981.4563" />
    <text
       xml:space="preserve"
       style="font-style:normal;font-weight:normal;font-size:40px;line-height:125%;font-family:sans-serif;letter-spacing:0px;word-spacing:0px;fill:#000000;fill-opacity:1;stroke:none;stroke-width:1px;stroke-linecap:butt;stroke-linejoin:miter;stroke-opacity:1"
       x="701.14941"
       y="690.29333"
       id="text4171"
       sodipodi:linespacing="125%"><tspan
         sodipodi:role="line"
         id="tspan4173"
         x="701.14941"
         y="690.29333" /></text>
    <text
       xml:space="preserve"
       style="font-style:normal;font-weight:normal;font-size:40px;line-height:125%;font-family:sans-serif;letter-spacing:0px;word-spacing:0px;fill:#000000;fill-opacity:1;stroke:none;stroke-width:1px;stroke-linecap:butt;stroke-linejoin:miter;stroke-opacity:1"
       x="866.66669"
       y="710.98297"
       id="text4184"
       sodipodi:linespacing="125%"><tspan
         sodipodi:role="line"
         id="tspan4186"
         x="866.66669"
         y="710.98297" /><tspan
         sodipodi:role="line"
         x="866.66669"
         y="760.98297"
         id="tspan4188" /></text>
    <text
       xml:space="preserve"
       style="font-style:normal;font-weight:normal;font-size:40px;line-height:125%;font-family:sans-serif;letter-spacing:0px;word-spacing:0px;fill:#000000;fill-opacity:1;stroke:none;stroke-width:1px;stroke-linecap:butt;stroke-linejoin:miter;stroke-opacity:1"
       x="866.66669"
       y="713.2818"
       id="text4190"
       sodipodi:linespacing="125%"><tspan
         sodipodi:role="line"
         id="tspan4192"
         x="866.66669"
         y="713.2818" /><tspan
         sodipodi:role="line"
         x="866.66669"
         y="763.2818"
         id="tspan4194" /></text>
    <g
       style="font-style:normal;font-weight:normal;font-size:40px;line-height:125%;font-family:sans-serif;letter-spacing:0px;word-spacing:0px;fill:#edead1;fill-opacity:1;stroke:none;stroke-width:1px;stroke-linecap:butt;stroke-linejoin:miter;stroke-opacity:1"
       id="text4214"
       transform="translate(10,10)">
      <path
         d="m 655.67139,367.60089 -3.34473,9.06983 6.70166,0 -3.35693,-9.06983 z m -1.3916,-2.4292 2.79541,0 6.9458,18.2251 -2.56348,0 -1.66016,-4.67529 -8.21533,0 -1.66016,4.67529 -2.60009,0 6.95801,-18.2251 z"
         style="font-size:25px;fill:#edead1;fill-opacity:1"
         id="path4259"
         inkscape:connector-curvature="0" />
      <path
         d="m 676.38672,376.57306 q 0,-2.47803 -1.02539,-3.88184 -1.01319,-1.41601 -2.79541,-1.41601 -1.78223,0 -2.80762,1.41601 -1.01318,1.40381 -1.01318,3.88184 0,2.47803 1.01318,3.89404 1.02539,1.40381 2.80762,1.40381 1.78222,0 2.79541,-1.40381 1.02539,-1.41601 1.02539,-3.89404 z m -7.6416,-4.77295 q 0.708,-1.2207 1.78222,-1.80664 1.08643,-0.59815 2.58789,-0.59815 2.49024,0 4.04053,1.97754 1.5625,1.97754 1.5625,5.2002 0,3.22266 -1.5625,5.20019 -1.55029,1.97754 -4.04053,1.97754 -1.50146,0 -2.58789,-0.58593 -1.07422,-0.59815 -1.78222,-1.81885 l 0,2.05078 -2.2583,0 0,-18.99414 2.2583,0 0,7.39746 z"
         style="font-size:25px;fill:#edead1;fill-opacity:1"
         id="path4261"
         inkscape:connector-curvature="0" />
      <path
         d="m 687.73926,371.29962 q -1.80664,0 -2.85645,1.41602 -1.0498,1.40381 -1.0498,3.85742 0,2.45361 1.0376,3.86963 1.0498,1.40381 2.86865,1.40381 1.79443,0 2.84424,-1.41602 1.0498,-1.41601 1.0498,-3.85742 0,-2.4292 -1.0498,-3.84522 -1.04981,-1.42822 -2.84424,-1.42822 z m 0,-1.9043 q 2.92969,0 4.60205,1.9043 1.67236,1.9043 1.67236,5.27344 0,3.35693 -1.67236,5.27344 -1.67236,1.90429 -4.60205,1.90429 -2.9419,0 -4.61426,-1.90429 -1.66016,-1.91651 -1.66016,-5.27344 0,-3.36914 1.66016,-5.27344 1.67236,-1.9043 4.61426,-1.9043 z"
         style="font-size:25px;fill:#edead1;fill-opacity:1"
         id="path4263"
         inkscape:connector-curvature="0" />
      <path
         d="m 697.49268,378.00128 0,-8.27637 2.24609,0 0,8.19092 q 0,1.94092 0.75684,2.91748 0.75683,0.96436 2.2705,0.96436 1.81885,0 2.86866,-1.15967 1.06201,-1.15967 1.06201,-3.16162 l 0,-7.75147 2.24609,0 0,13.67188 -2.24609,0 0,-2.09961 q -0.81787,1.24512 -1.9043,1.85547 -1.07422,0.59814 -2.50244,0.59814 -2.35596,0 -3.57666,-1.46484 -1.2207,-1.46484 -1.2207,-4.28467 z"
         style="font-size:25px;fill:#edead1;fill-opacity:1"
         id="path4265"
         inkscape:connector-curvature="0" />
      <path
         d="m 715.81543,365.84308 0,3.88183 4.62646,0 0,1.74561 -4.62646,0 0,7.42188 q 0,1.67236 0.45166,2.14843 0.46387,0.47608 1.86768,0.47608 l 2.30712,0 0,1.87988 -2.30712,0 q -2.6001,0 -3.58887,-0.96436 -0.98877,-0.97656 -0.98877,-3.54003 l 0,-7.42188 -1.64795,0 0,-1.74561 1.64795,0 0,-3.88183 2.2583,0 z"
         style="font-size:25px;fill:#edead1;fill-opacity:1"
         id="path4267"
         inkscape:connector-curvature="0" />
    </g>
    <g
       style="font-style:normal;font-weight:normal;font-size:40px;line-height:125%;font-family:sans-serif;letter-spacing:0px;word-spacing:0px;fill:#edead1;fill-opacity:1;stroke:none;stroke-width:1px;stroke-linecap:butt;stroke-linejoin:miter;stroke-opacity:1"
       id="text4218"
       transform="translate(0,10)">
      <path
         d="m 826.3703,363.97629 2.49023,0 3.83301,15.40527 3.8208,-15.40527 2.771,0 3.83301,15.40527 3.8208,-15.40527 2.50244,0 -4.57764,18.2251 -3.10058,0 -3.84522,-15.82032 -3.88183,15.82032 -3.10059,0 -4.56543,-18.2251 z"
         style="font-size:25px;fill:#edead1;fill-opacity:1"
         id="path4270"
         inkscape:connector-curvature="0" />
      <path
         d="m 856.43622,370.10422 q -1.80664,0 -2.85645,1.41601 -1.0498,1.40381 -1.0498,3.85743 0,2.45361 1.0376,3.86962 1.0498,1.40381 2.86865,1.40381 1.79443,0 2.84424,-1.41601 1.0498,-1.41602 1.0498,-3.85742 0,-2.4292 -1.0498,-3.84522 -1.04981,-1.42822 -2.84424,-1.42822 z m 0,-1.9043 q 2.92969,0 4.60205,1.9043 1.67236,1.90429 1.67236,5.27344 0,3.35693 -1.67236,5.27343 -1.67236,1.9043 -4.60205,1.9043 -2.9419,0 -4.61426,-1.9043 -1.66016,-1.9165 -1.66016,-5.27343 0,-3.36915 1.66016,-5.27344 1.67236,-1.9043 4.61426,-1.9043 z"
         style="font-size:25px;fill:#edead1;fill-opacity:1"
         id="path4272"
         inkscape:connector-curvature="0" />
      <path
         d="m 874.34393,370.62912 q -0.37841,-0.21973 -0.83008,-0.31738 -0.43945,-0.10987 -0.97656,-0.10987 -1.90429,0 -2.92969,1.24512 -1.01318,1.23291 -1.01318,3.55225 l 0,7.20215 -2.2583,0 0,-13.67188 2.2583,0 0,2.12402 q 0.70801,-1.24511 1.84326,-1.84326 1.13526,-0.61035 2.75879,-0.61035 0.23194,0 0.5127,0.0366 0.28076,0.0244 0.62256,0.0855 l 0.0122,2.30713 z"
         style="font-size:25px;fill:#edead1;fill-opacity:1"
         id="path4274"
         inkscape:connector-curvature="0" />
      <path
         d="m 876.63885,363.20724 2.25831,0 0,11.21827 6.70166,-5.896 2.86865,0 -7.25098,6.39648 7.55615,7.2754 -2.92968,0 -6.9458,-6.67725 0,6.67725 -2.25831,0 0,-18.99415 z"
         style="font-size:25px;fill:#edead1;fill-opacity:1"
         id="path4276"
         inkscape:connector-curvature="0" />
    </g>
    <text
       xml:space="preserve"
       style="font-style:normal;font-weight:normal;font-size:40px;line-height:125%;font-family:sans-serif;letter-spacing:0px;word-spacing:0px;fill:#edead1;fill-opacity:1;stroke:none;stroke-width:1px;stroke-linecap:butt;stroke-linejoin:miter;stroke-opacity:1"
       x="1000.9196"
       y="392.50024"
       id="text4222"
       sodipodi:linespacing="125%"><tspan
         sodipodi:role="line"
         id="tspan4224"
         x="1000.9196"
         y="392.50024"
         style="font-size:25px;fill:#edead1;fill-opacity:1">Study</tspan></text>
    <text
       xml:space="preserve"
       style="font-style:normal;font-weight:normal;font-size:25px;line-height:125%;font-family:sans-serif;letter-spacing:0px;word-spacing:0px;fill:#edead1;fill-opacity:1;stroke:none;stroke-width:1px;stroke-linecap:butt;stroke-linejoin:miter;stroke-opacity:1"
       x="1155.8047"
       y="393.09793"
       id="text4226"
       sodipodi:linespacing="125%"><tspan
         sodipodi:role="line"
         id="tspan4228"
         x="1155.8047"
         y="393.09793"
         style="font-size:25px;fill:#edead1;fill-opacity:1">Articles</tspan></text>
    <text
       sodipodi:linespacing="125%"
       id="text4205"
       y="989.9621"
       x="21.854212"
       style="font-style:normal;font-variant:normal;font-weight:normal;font-stretch:normal;font-size:31.94620514px;line-height:125%;font-family:sans-serif;-inkscape-font-specification:'sans-serif, Normal';text-align:start;letter-spacing:0px;word-spacing:0px;writing-mode:lr-tb;text-anchor:start;fill:#333366;fill-opacity:1;stroke:none;stroke-width:1px;stroke-linecap:butt;stroke-linejoin:miter;stroke-opacity:1"
       xml:space="preserve"
       transform="scale(0.9604012,1.0412315)"><tspan
         sodipodi:role="line"
         id="tspan4209"
         x="21.854212"
         y="989.9621">FOOTER</tspan></text>
    <text
       xml:space="preserve"
       style="font-style:normal;font-variant:normal;font-weight:normal;font-stretch:normal;font-size:20px;line-height:125%;font-family:sans-serif;-inkscape-font-specification:'sans-serif, Normal';text-align:start;letter-spacing:0px;word-spacing:0px;writing-mode:lr-tb;text-anchor:start;fill:#000000;fill-opacity:1;stroke:none;stroke-width:1px;stroke-linecap:butt;stroke-linejoin:miter;stroke-opacity:1"
       x="715"
       y="383.6123"
       id="text4282"
       sodipodi:linespacing="125%"><tspan
         sodipodi:role="line"
         id="tspan4284"
         x="715"
         y="383.6123" /></text>
    <rect
       style="fill:none;fill-opacity:1;stroke:#000000;stroke-width:1.56822646;stroke-miterlimit:4;stroke-dasharray:none;stroke-opacity:1"
       id="rect4298"
       width="640.68182"
       height="255.85876"
       x="639.53412"
       y="441.05789" />
    <text
       sodipodi:linespacing="125%"
       id="text4300"
       y="381.97379"
       x="22.956205"
       style="font-style:normal;font-variant:normal;font-weight:normal;font-stretch:normal;font-size:32.20190048px;line-height:125%;font-family:sans-serif;-inkscape-font-specification:'sans-serif, Normal';text-align:start;letter-spacing:0px;word-spacing:0px;writing-mode:lr-tb;text-anchor:start;fill:#333366;fill-opacity:1;stroke:none;stroke-width:1px;stroke-linecap:butt;stroke-linejoin:miter;stroke-opacity:1"
       xml:space="preserve"
       transform="scale(0.95915089,1.0425888)"><tspan
         y="381.97379"
         x="22.956205"
         id="tspan4302"
         sodipodi:role="line">HEADER</tspan></text>
    <text
       xml:space="preserve"
       style="font-style:normal;font-weight:normal;font-size:40px;line-height:125%;font-family:sans-serif;letter-spacing:0px;word-spacing:0px;fill:#c9a40a;fill-opacity:1;stroke:none;stroke-width:1px;stroke-linecap:butt;stroke-linejoin:miter;stroke-opacity:1"
       x="587.64081"
       y="1024.9375"
       id="text4304"
       sodipodi:linespacing="125%"><tspan
         sodipodi:role="line"
         id="tspan4306"
         x="587.64081"
         y="1024.9375"
         style="font-size:30px;fill:#c9a40a;fill-opacity:1">LinkedIn</tspan></text>
    <text
       xml:space="preserve"
       style="font-style:normal;font-variant:normal;font-weight:normal;font-stretch:normal;font-size:20px;line-height:125%;font-family:sans-serif;-inkscape-font-specification:'sans-serif, Normal';text-align:start;letter-spacing:0px;word-spacing:0px;writing-mode:lr-tb;text-anchor:start;fill:#000000;fill-opacity:1;stroke:none;stroke-width:1px;stroke-linecap:butt;stroke-linejoin:miter;stroke-opacity:1"
       x="417.5"
       y="591.1123"
       id="text4320"
       sodipodi:linespacing="125%"><tspan
         sodipodi:role="line"
         id="tspan4322"
         x="417.5"
         y="591.1123" /></text>
    <text
       xml:space="preserve"
       style="font-style:normal;font-variant:normal;font-weight:normal;font-stretch:normal;font-size:20px;line-height:125%;font-family:sans-serif;-inkscape-font-specification:'sans-serif, Normal';text-align:start;letter-spacing:0px;word-spacing:0px;writing-mode:lr-tb;text-anchor:start;fill:#000000;fill-opacity:1;stroke:none;stroke-width:1px;stroke-linecap:butt;stroke-linejoin:miter;stroke-opacity:1"
       x="288.75"
       y="414.8623"
       id="text3405"
       sodipodi:linespacing="125%"><tspan
         sodipodi:role="line"
         id="tspan3407"
         x="288.75"
         y="414.8623" /></text>
    <text
       xml:space="preserve"
       style="font-style:normal;font-variant:normal;font-weight:normal;font-stretch:normal;font-size:20px;line-height:125%;font-family:sans-serif;-inkscape-font-specification:'sans-serif, Normal';text-align:start;letter-spacing:0px;word-spacing:0px;writing-mode:lr-tb;text-anchor:start;fill:#d2b63f;fill-opacity:1;stroke:none;stroke-width:1px;stroke-linecap:butt;stroke-linejoin:miter;stroke-opacity:1;"
       x="-68.75"
       y="422.3623"
       id="text3409"
       sodipodi:linespacing="125%"><tspan
         sodipodi:role="line"
         id="tspan3411"
         x="-68.75"
         y="422.3623" /></text>
    <rect
       style="fill:#d2b63f;fill-opacity:1;stroke:#000000;stroke-width:1.17700005;stroke-miterlimit:4;stroke-dasharray:none;stroke-opacity:1"
       id="rect3413"
       width="645"
       height="68.75"
       x="608.25"
       y="349.8623" />
    <text
       xml:space="preserve"
       style="font-style:normal;font-variant:normal;font-weight:normal;font-stretch:normal;font-size:40.48807144px;line-height:125%;font-family:sans-serif;-inkscape-font-specification:'sans-serif, Normal';text-align:start;letter-spacing:0px;word-spacing:0px;writing-mode:lr-tb;text-anchor:start;fill:#000000;fill-opacity:1;stroke:none;stroke-width:1px;stroke-linecap:butt;stroke-linejoin:miter;stroke-opacity:1"
       x="736.35596"
       y="386.40262"
       id="text3415"
       sodipodi:linespacing="125%"
       transform="scale(0.96708805,1.034032)"><tspan
         sodipodi:role="line"
         id="tspan3417"
         x="736.35596"
         y="386.40262">NAV (INTERNAL LINKS)</tspan></text>
    <text
       xml:space="preserve"
       style="font-style:normal;font-variant:normal;font-weight:normal;font-stretch:normal;font-size:20px;line-height:125%;font-family:sans-serif;-inkscape-font-specification:'sans-serif, Normal';text-align:center;letter-spacing:0px;word-spacing:0px;writing-mode:lr-tb;text-anchor:middle;fill:#000000;fill-opacity:1;stroke:none;stroke-width:1px;stroke-linecap:butt;stroke-linejoin:miter;stroke-opacity:1"
       x="317.92969"
       y="553.6123"
       id="text3419"
       sodipodi:linespacing="125%"><tspan
         sodipodi:role="line"
         id="tspan3421"
         x="317.92969"
         y="553.6123">SECTION</tspan><tspan
         sodipodi:role="line"
         x="317.92969"
         y="578.6123"
         id="tspan3423">(HERO IMAGE)</tspan></text>
    <text
       xml:space="preserve"
       style="font-style:normal;font-variant:normal;font-weight:normal;font-stretch:normal;font-size:20px;line-height:125%;font-family:sans-serif;-inkscape-font-specification:'sans-serif, Normal';text-align:start;letter-spacing:0px;word-spacing:0px;writing-mode:lr-tb;text-anchor:start;fill:#000000;fill-opacity:1;stroke:none;stroke-width:1px;stroke-linecap:butt;stroke-linejoin:miter;stroke-opacity:1"
       x="920"
       y="560.6123"
       id="text3425"
       sodipodi:linespacing="125%"><tspan
         sodipodi:role="line"
         id="tspan3427"
         x="920"
         y="560.6123">ASIDE</tspan></text>
    <rect
       y="989.79266"
       x="628.18036"
       height="55.139282"
       width="625.13928"
       id="rect3429"
       style="fill:#d2b63f;fill-opacity:1;stroke:#000000;stroke-width:1.0377177;stroke-miterlimit:4;stroke-dasharray:none;stroke-opacity:1" />
    <text
       xml:space="preserve"
       style="font-style:normal;font-variant:normal;font-weight:normal;font-stretch:normal;font-size:20px;line-height:125%;font-family:sans-serif;-inkscape-font-specification:'sans-serif, Normal';text-align:start;letter-spacing:0px;word-spacing:0px;writing-mode:lr-tb;text-anchor:start;fill:#000000;fill-opacity:1;stroke:none;stroke-width:1px;stroke-linecap:butt;stroke-linejoin:miter;stroke-opacity:1"
       x="854.25"
       y="1022.3623"
       id="text3431"
       sodipodi:linespacing="125%"><tspan
         sodipodi:role="line"
         id="tspan3433"
         x="854.25"
         y="1022.3623">NAV (EXTERNAL LINKS)</tspan></text>
    <rect
       style="fill:#d2b63f;fill-opacity:1;stroke:#000000;stroke-width:1.17700005;stroke-miterlimit:4;stroke-dasharray:none;stroke-opacity:1"
       id="rect3435"
       width="1280"
       height="88.75"
       x="0"
       y="697.3623" />
    <rect
       style="fill:#d2b63f;fill-opacity:1;stroke:#000000;stroke-width:1.21005499;stroke-miterlimit:4;stroke-dasharray:none;stroke-opacity:1"
       id="rect3437"
       width="1278.7169"
       height="101.73472"
       x="0.016527431"
       y="785.37885" />
    <rect
       style="fill:#d2b63f;fill-opacity:1;stroke:#000000;stroke-width:1.17389596;stroke-miterlimit:4;stroke-dasharray:none;stroke-opacity:1"
       id="rect3439"
       width="1278.3893"
       height="95.957413"
       x="-0.70156276"
       y="884.435"
       transform="matrix(0.99999978,6.6200854e-4,0.00128584,0.99999917,0,0)" />
    <text
       xml:space="preserve"
       style="font-style:normal;font-variant:normal;font-weight:normal;font-stretch:normal;font-size:20px;line-height:125%;font-family:sans-serif;-inkscape-font-specification:'sans-serif, Normal';text-align:start;letter-spacing:0px;word-spacing:0px;writing-mode:lr-tb;text-anchor:start;fill:#000000;fill-opacity:1;stroke:none;stroke-width:1px;stroke-linecap:butt;stroke-linejoin:miter;stroke-opacity:1"
       x="535.75"
       y="741.1123"
       id="text3441"
       sodipodi:linespacing="125%"><tspan
         sodipodi:role="line"
         id="tspan3443"
         x="535.75"
         y="741.1123">SECTION (ABOUT ME)</tspan></text>
    <text
       xml:space="preserve"
       style="font-style:normal;font-variant:normal;font-weight:normal;font-stretch:normal;font-size:20px;line-height:125%;font-family:sans-serif;-inkscape-font-specification:'sans-serif, Normal';text-align:start;letter-spacing:0px;word-spacing:0px;writing-mode:lr-tb;text-anchor:start;fill:#000000;fill-opacity:1;stroke:none;stroke-width:1px;stroke-linecap:butt;stroke-linejoin:miter;stroke-opacity:1"
       x="554.25"
       y="838.6123"
       id="text3445"
       sodipodi:linespacing="125%"><tspan
         sodipodi:role="line"
         id="tspan3447"
         x="554.25"
         y="838.6123">SECTION (WORK)</tspan></text>
    <text
       xml:space="preserve"
       style="font-style:normal;font-variant:normal;font-weight:normal;font-stretch:normal;font-size:20px;line-height:125%;font-family:sans-serif;-inkscape-font-specification:'sans-serif, Normal';text-align:start;letter-spacing:0px;word-spacing:0px;writing-mode:lr-tb;text-anchor:start;fill:#000000;fill-opacity:1;stroke:none;stroke-width:1px;stroke-linecap:butt;stroke-linejoin:miter;stroke-opacity:1"
       x="553.5"
       y="937.3623"
       id="text3449"
       sodipodi:linespacing="125%"><tspan
         sodipodi:role="line"
         id="tspan3451"
         x="553.5"
         y="937.3623">SECTION (STUDY)</tspan></text>
  </g>
</svg>
